<?xml version="1.0" encoding="utf-8"?>
<!-- Generator: Adobe Illustrator 19.0.0, SVG Export Plug-In . SVG Version: 6.00 Build 0)  -->
<svg version="1.1" id="Layer_1" xmlns="http://www.w3.org/2000/svg" xmlns:xlink="http://www.w3.org/1999/xlink" x="0px" y="0px"
     viewBox="0 0 96 96" style="enable-background:new 0 0 96 96;" xml:space="preserve">
<style type="text/css">
    .st0{fill:#FFFFFF;}
</style>
<g id="XMLID_3_">
    <path id="XMLID_5_" class="st0" d="M70.4,33.7l0.1-0.7c0-5.9-4.6-10.7-10.3-11.2c-2.1-2.3-5-3.8-8.4-3.8c-4,0-7.5,2.1-9.5,5.3
        c-1.6-0.9-3.5-1.5-5.5-1.5c-6.2,0-11.3,5-11.3,11.3l0.1,0.7c-4.4,1.5-7.6,5.7-7.6,10.6c0,6.2,5,11.3,11.3,11.3c2.1,0,4-0.6,5.6-1.6
        c1.7,1,3.6,1.6,5.6,1.6c1.3,0,2.6-0.3,3.8-0.7v19.4h-3.8V78h15v-3.8h-3.8V55.5c0.6,0,1.3-0.1,1.9-0.2c0.6,0.1,1.2,0.2,1.9,0.2
        c2.1,0,4-0.6,5.6-1.6c1.7,1,3.6,1.6,5.6,1.6c6.2,0,11.3-5,11.3-11.3C78,39.3,74.8,35.2,70.4,33.7z"/>
</g>
</svg>
