<?xml version="1.0" encoding="utf-8"?>
<!-- Generator: Adobe Illustrator 19.0.0, SVG Export Plug-In . SVG Version: 6.00 Build 0)  -->
<svg version="1.1" id="Layer_1" xmlns="http://www.w3.org/2000/svg" xmlns:xlink="http://www.w3.org/1999/xlink" x="0px" y="0px"
     viewBox="0 0 96 96" style="enable-background:new 0 0 96 96;" xml:space="preserve">
<style type="text/css">
    .st0{fill:#ffffff;}
</style>
<g id="XMLID_1_">
    <path id="XMLID_3_" class="st0" d="M67.5,15.5c-7.2,0-13,5.8-13,13h16.2V41c5.6-1.5,9.7-6.5,9.7-12.5
        C80.5,21.3,74.7,15.5,67.5,15.5z"/>
    <path id="XMLID_4_" class="st0" d="M64.3,31.8H18.8c-1.3,0-2.5,0.8-3,2c-0.5,1.2-0.2,2.6,0.7,3.5l21.8,21.8V74h-9.7v6.5h26V74h-9.7
        V59.1l21.8-21.8c0.9-0.9,1.2-2.3,0.7-3.5C66.7,32.5,65.6,31.8,64.3,31.8z"/>
    <path id="XMLID_5_" class="st0" d="M27.2,28.5h9.2l-8.8-8.8c-0.6-0.6-1.4-1-2.3-1h-9.7v6.5h8.4L27.2,28.5z"/>
</g>
</svg>
